<?xml version="1.0" encoding="UTF-8"?>
<!-- Generator: Adobe Illustrator 16.0.0, SVG Export Plug-In . SVG Version: 6.00 Build 0)  -->
<!DOCTYPE svg PUBLIC "-//W3C//DTD SVG 1.1//EN" "http://www.w3.org/Graphics/SVG/1.1/DTD/svg11.dtd">
<svg version="1.1" id="Calque_1" xmlns="http://www.w3.org/2000/svg" xmlns:xlink="http://www.w3.org/1999/xlink" x="0px" y="0px" width="160px" height="160px" viewBox="0 0 160 160" enable-background="new 0 0 160 160" xml:space="preserve">
<g>
	<defs>
		<rect id="SVGID_1_" width="160" height="160"/>
	</defs>
	<clipPath id="SVGID_2_">
		<use xlink:href="#SVGID_1_" overflow="visible"/>
	</clipPath>
	<polyline clip-path="url(#SVGID_2_)" fill="none" stroke="#DDDDDD" stroke-width="0.25" stroke-miterlimit="10" points="-0.08,160    -0.08,80.503 80.45,80.503  "/>
	
		<line clip-path="url(#SVGID_2_)" fill="none" stroke="#DDDDDD" stroke-width="0.25" stroke-miterlimit="10" x1="-0.08" y1="160" x2="80.45" y2="80.503"/>
	<polyline clip-path="url(#SVGID_2_)" fill="none" stroke="#DDDDDD" stroke-width="0.25" stroke-miterlimit="10" points="   -0.08,116.056 60.647,116.056 60.647,100.297 44.804,100.297 44.804,160  "/>
</g>
<polyline fill="none" stroke="#DDDDDD" stroke-width="0.25" stroke-linejoin="round" points="44.804,100.297 26.535,80.503   7.574,97.681 "/>
<g>
	<defs>
		<rect id="SVGID_3_" width="160" height="160"/>
	</defs>
	<clipPath id="SVGID_4_">
		<use xlink:href="#SVGID_3_" overflow="visible"/>
	</clipPath>
	<polyline clip-path="url(#SVGID_4_)" fill="none" stroke="#DDDDDD" stroke-width="0.25" stroke-linejoin="round" points="   -0.08,80.503 15.763,116.056 44.804,100.297 52.815,80.503 60.647,100.297 63.954,80.503  "/>
</g>
<polyline fill="none" stroke="#DDDDDD" stroke-width="0.25" stroke-linejoin="round" points="80.45,96.604 60.647,100.297   80.45,108.005 60.647,116.056 80.45,134.672 63.845,152.946 "/>
<g>
	<defs>
		<rect id="SVGID_5_" width="160" height="160"/>
	</defs>
	<clipPath id="SVGID_6_">
		<use xlink:href="#SVGID_5_" overflow="visible"/>
	</clipPath>
	<polyline clip-path="url(#SVGID_6_)" fill="none" stroke="#DDDDDD" stroke-width="0.25" stroke-linejoin="round" points="   60.647,116.056 44.804,144.865 80.45,160  "/>
</g>
<polyline fill="none" stroke="#DDDDDD" stroke-width="0.25" stroke-linejoin="round" points="15.763,116.056 44.805,144.865   80.451,134.672 54.201,127.778 "/>
<g>
	<defs>
		<rect id="SVGID_7_" width="160" height="160"/>
	</defs>
	<clipPath id="SVGID_8_">
		<use xlink:href="#SVGID_7_" overflow="visible"/>
	</clipPath>
	<polyline clip-path="url(#SVGID_8_)" fill="none" stroke="#DDDDDD" stroke-width="0.25" stroke-linejoin="round" points="   -0.08,131.532 44.804,144.865 29.378,160 11.861,149.071 -0.08,131.532 15.763,116.056 26.536,80.503 32.794,106.817  "/>
	
		<line clip-path="url(#SVGID_8_)" fill="none" stroke="#DDDDDD" stroke-width="0.25" stroke-linejoin="round" x1="15.763" y1="116.056" x2="29.378" y2="160"/>
	<polyline clip-path="url(#SVGID_8_)" fill="none" stroke="#DDDDDD" stroke-width="0.25" stroke-miterlimit="10" points="   160,80.503 80.45,80.503 80.45,160  "/>
	
		<line clip-path="url(#SVGID_8_)" fill="none" stroke="#DDDDDD" stroke-width="0.25" stroke-miterlimit="10" x1="160" y1="160" x2="80.45" y2="80.503"/>
	<polyline clip-path="url(#SVGID_8_)" fill="none" stroke="#DDDDDD" stroke-width="0.25" stroke-miterlimit="10" points="   160,116.056 100.254,116.056 100.254,100.297 116.096,100.297 116.096,160  "/>
</g>
<polyline fill="none" stroke="#DDDDDD" stroke-width="0.25" stroke-linejoin="round" points="116.096,100.297 134.375,80.503   152.96,97.349 "/>
<g>
	<defs>
		<rect id="SVGID_9_" width="160" height="160"/>
	</defs>
	<clipPath id="SVGID_10_">
		<use xlink:href="#SVGID_9_" overflow="visible"/>
	</clipPath>
	<polyline clip-path="url(#SVGID_10_)" fill="none" stroke="#DDDDDD" stroke-width="0.25" stroke-linejoin="round" points="   160,80.503 145.147,116.056 116.096,100.297 108.096,80.503 100.254,100.297 96.956,80.503  "/>
</g>
<polyline fill="none" stroke="#DDDDDD" stroke-width="0.25" stroke-linejoin="round" points="80.45,96.604 100.254,100.297   80.45,108.005 100.254,116.056 80.45,134.672 97.065,152.946 "/>
<g>
	<defs>
		<rect id="SVGID_11_" width="160" height="160"/>
	</defs>
	<clipPath id="SVGID_12_">
		<use xlink:href="#SVGID_11_" overflow="visible"/>
	</clipPath>
	<polyline clip-path="url(#SVGID_12_)" fill="none" stroke="#DDDDDD" stroke-width="0.25" stroke-linejoin="round" points="   100.254,116.056 116.096,144.865 80.45,160  "/>
</g>
<polyline fill="none" stroke="#DDDDDD" stroke-width="0.25" stroke-linejoin="round" points="145.147,116.056 116.096,144.865   80.45,134.672 106.699,127.778 "/>
<g>
	<defs>
		<rect id="SVGID_13_" width="160" height="160"/>
	</defs>
	<clipPath id="SVGID_14_">
		<use xlink:href="#SVGID_13_" overflow="visible"/>
	</clipPath>
	<polyline clip-path="url(#SVGID_14_)" fill="none" stroke="#DDDDDD" stroke-width="0.25" stroke-linejoin="round" points="   160,131.532 116.096,144.865 131.533,160 149.049,149.071 160,131.532 145.147,116.056 134.375,80.503 128.116,106.817  "/>
	
		<line clip-path="url(#SVGID_14_)" fill="none" stroke="#DDDDDD" stroke-width="0.25" stroke-linejoin="round" x1="145.147" y1="116.056" x2="131.533" y2="160"/>
	<polyline clip-path="url(#SVGID_14_)" fill="none" stroke="#DDDDDD" stroke-width="0.25" stroke-miterlimit="10" points="   -0.08,80.503 -0.08,0 80.45,0  "/>
	
		<line clip-path="url(#SVGID_14_)" fill="none" stroke="#DDDDDD" stroke-width="0.25" stroke-miterlimit="10" x1="-0.08" y1="0" x2="80.45" y2="80.503"/>
	<polyline clip-path="url(#SVGID_14_)" fill="none" stroke="#DDDDDD" stroke-width="0.25" stroke-miterlimit="10" points="   -0.08,44.951 60.647,44.951 60.647,60.709 44.804,60.709 44.804,0  "/>
</g>
<polyline fill="none" stroke="#DDDDDD" stroke-width="0.25" stroke-linejoin="round" points="44.804,60.709 26.535,80.502   7.574,63.326 "/>
<g>
	<defs>
		<rect id="SVGID_15_" width="160" height="160"/>
	</defs>
	<clipPath id="SVGID_16_">
		<use xlink:href="#SVGID_15_" overflow="visible"/>
	</clipPath>
	<polyline clip-path="url(#SVGID_16_)" fill="none" stroke="#DDDDDD" stroke-width="0.25" stroke-linejoin="round" points="   -0.08,80.503 15.763,44.951 44.804,60.71 52.815,80.503 60.647,60.71 63.954,80.503  "/>
</g>
<polyline fill="none" stroke="#DDDDDD" stroke-width="0.25" stroke-linejoin="round" points="80.45,64.402 60.647,60.709   80.45,53.001 60.647,44.951 80.45,26.334 63.419,7.587 "/>
<g>
	<defs>
		<rect id="SVGID_17_" width="160" height="160"/>
	</defs>
	<clipPath id="SVGID_18_">
		<use xlink:href="#SVGID_17_" overflow="visible"/>
	</clipPath>
	<polyline clip-path="url(#SVGID_18_)" fill="none" stroke="#DDDDDD" stroke-width="0.25" stroke-linejoin="round" points="   60.647,44.951 44.804,16.141 80.45,0  "/>
</g>
<polyline fill="none" stroke="#DDDDDD" stroke-width="0.25" stroke-linejoin="round" points="15.763,44.951 44.805,16.141   80.451,26.334 54.201,33.227 "/>
<g>
	<defs>
		<rect id="SVGID_19_" width="160" height="160"/>
	</defs>
	<clipPath id="SVGID_20_">
		<use xlink:href="#SVGID_19_" overflow="visible"/>
	</clipPath>
	<polyline clip-path="url(#SVGID_20_)" fill="none" stroke="#DDDDDD" stroke-width="0.25" stroke-linejoin="round" points="   -0.08,29.474 44.804,16.141 29.378,0 11.861,11.934 -0.08,29.474 15.763,44.951 26.536,80.503 32.794,54.188  "/>
	
		<line clip-path="url(#SVGID_20_)" fill="none" stroke="#DDDDDD" stroke-width="0.25" stroke-linejoin="round" x1="15.763" y1="44.951" x2="29.378" y2="0"/>
	<polyline clip-path="url(#SVGID_20_)" fill="none" stroke="#DDDDDD" stroke-width="0.25" stroke-miterlimit="10" points="   80.45,80.503 80.45,0 160,0  "/>
	
		<line clip-path="url(#SVGID_20_)" fill="none" stroke="#DDDDDD" stroke-width="0.25" stroke-miterlimit="10" x1="160" y1="0" x2="80.45" y2="80.503"/>
	<polyline clip-path="url(#SVGID_20_)" fill="none" stroke="#DDDDDD" stroke-width="0.25" stroke-miterlimit="10" points="   160,44.951 100.254,44.951 100.254,60.709 116.096,60.709 116.096,0  "/>
</g>
<polyline fill="none" stroke="#DDDDDD" stroke-width="0.25" stroke-linejoin="round" points="116.096,60.709 134.375,80.502   152.96,63.658 "/>
<g>
	<defs>
		<rect id="SVGID_21_" width="160" height="160"/>
	</defs>
	<clipPath id="SVGID_22_">
		<use xlink:href="#SVGID_21_" overflow="visible"/>
	</clipPath>
	<polyline clip-path="url(#SVGID_22_)" fill="none" stroke="#DDDDDD" stroke-width="0.25" stroke-linejoin="round" points="   160,80.503 145.147,44.951 116.096,60.71 108.096,80.503 100.254,60.71 96.956,80.503  "/>
</g>
<polyline fill="none" stroke="#DDDDDD" stroke-width="0.25" stroke-linejoin="round" points="80.45,64.402 100.254,60.709   80.45,53.001 100.254,44.951 80.45,26.334 97.491,7.587 "/>
<g>
	<defs>
		<rect id="SVGID_23_" width="160" height="160"/>
	</defs>
	<clipPath id="SVGID_24_">
		<use xlink:href="#SVGID_23_" overflow="visible"/>
	</clipPath>
	<polyline clip-path="url(#SVGID_24_)" fill="none" stroke="#DDDDDD" stroke-width="0.25" stroke-linejoin="round" points="   100.254,44.951 116.096,16.141 80.45,0  "/>
</g>
<polyline fill="none" stroke="#DDDDDD" stroke-width="0.25" stroke-linejoin="round" points="145.147,44.951 116.096,16.141   80.45,26.334 106.699,33.227 "/>
<g>
	<defs>
		<rect id="SVGID_25_" width="160" height="160"/>
	</defs>
	<clipPath id="SVGID_26_">
		<use xlink:href="#SVGID_25_" overflow="visible"/>
	</clipPath>
	<polyline clip-path="url(#SVGID_26_)" fill="none" stroke="#DDDDDD" stroke-width="0.25" stroke-linejoin="round" points="   160,29.474 116.096,16.141 131.533,0 149.049,11.934 160,29.474 145.147,44.951 134.375,80.503 128.116,54.188  "/>
	
		<line clip-path="url(#SVGID_26_)" fill="none" stroke="#DDDDDD" stroke-width="0.25" stroke-linejoin="round" x1="145.147" y1="44.951" x2="131.533" y2="0"/>
</g>
</svg>